:FULLY-SPECIFIED
:FORCE-ALL-JOINTS-BE-3DOF
:DEGREES
2548
root 4.06184 13.7198 -23.9153 -27.1674 85.0022 -29.9394
lfemur -38.3652 11.8629 -12.3884
ltibia 89.7868 -0 0
lfoot -27.685 26.1355 -0.0277381
ltoes -38.9057 0 0
rfemur -57.1393 -24.0943 10.2512
rtibia 64.7227 -0 0
rfoot 0.905316 6.30563 0.299716
rtoes 8.18255 -0 0
lowerback 16.8431 -0.32364 -3.50412
upperback -1.04265 -0.774904 3.05667
thorax -10.5608 -0.0475194 5.54867
lowerneck 5.13786 -14.6022 -15.1419
upperneck 0.0697396 -20.4496 15.0353
head 2.3143 -10.3733 6.22972
lclavicle -2.8128e-14 1.47101e-14 0
lhumerus -51.87 -46.2384 114.987
lradius 106.904 -0 0
lwrist 81.2434 0 0
lhand 8.68121 40.373 -0.0273693
lfingers 7.12502 -0 0
lthumb 33.8728 67.1682 -0.0313243
rclavicle -2.8128e-14 1.47101e-14 0
rhumerus 10.3518 -11.9756 -60.078
rradius 76.734 -0 0
rwrist 26.7754 0 0
rhand -37.567 -48.052 0.184398
rfingers 7.12502 -0 0
rthumb -10.6199 -77.7045 0.174917
2549
root 4.02583 13.7287 -24.0544 -19.5409 83.3733 -22.4799
lfemur -38.5394 11.8897 -12.6248
ltibia 89.6831 -0 0
lfoot -27.6921 26.2853 -0.0335567
ltoes -38.8009 0 0
rfemur -57.2263 -23.8529 10.563
rtibia 65.4483 -0 0
rfoot 0.657552 5.6354 0.368332
rtoes 8.19359 -0 0
lowerback 16.9042 -0.279658 -3.54118
upperback -1.02466 -0.728828 3.0297
thorax -10.5827 -0.0244954 5.52845
lowerneck 5.13737 -14.6032 -15.1429
upperneck 0.0520387 -20.4561 15.1469
head 2.32313 -10.3778 6.26205
lclavicle -2.8128e-14 1.47101e-14 0
lhumerus -51.2393 -46.737 114.931
lradius 106.617 -0 0
lwrist 80.9767 0 0
lhand 8.53566 40.474 -0.033636
lfingers 7.12502 -0 0
lthumb 33.7342 67.2962 -0.0384692
rclavicle -2.8128e-14 1.47101e-14 0
rhumerus 11.2622 -10.6995 -59.6969
rradius 77.0601 -0 0
rwrist 26.2667 0 0
rhand -37.1726 -47.7324 0.225841
rfingers 7.12502 -0 0
rthumb -10.239 -77.391 0.214233
2550
root 3.991 13.7371 -24.1928 -14.7175 81.5751 -17.8316
lfemur -38.7211 11.9314 -12.8755
ltibia 89.568 -0 0
lfoot -27.708 26.4398 -0.0393538
ltoes -38.6886 0 0
rfemur -57.315 -23.6063 10.8933
rtibia 66.2216 -0 0
rfoot 0.388771 4.92634 0.437717
rtoes 8.20657 -0 0
lowerback 16.9684 -0.233226 -3.58414
upperback -1.00637 -0.681047 3.00145
thorax -10.6063 -0.000351227 5.5098
lowerneck 5.13634 -14.6047 -15.1447
upperneck 0.0357277 -20.4636 15.2636
head 2.3333 -10.3828 6.29578
lclavicle -2.8128e-14 1.47101e-14 0
lhumerus -50.5661 -47.2599 114.864
lradius 106.314 -0 0
lwrist 80.6973 0 0
lhand 8.3818 40.5838 -0.0399744
lfingers 7.12502 -0 0
lthumb 33.5876 67.4345 -0.0456852
rclavicle -2.8128e-14 1.47101e-14 0
rhumerus 12.2309 -9.35498 -59.2788
rradius 77.4136 -0 0
rwrist 25.7427 0 0
rhand -36.755 -47.3938 0.267448
rfingers 7.12502 -0 0
rthumb -9.83586 -77.0587 0.253707
2551
root 3.95722 13.745 -24.3305 -11.4351 79.6452 -14.7323
lfemur -38.9099 11.9873 -13.1396
ltibia 89.4421 -0 0
lfoot -27.7323 26.5986 -0.0450798
ltoes -38.5694 0 0
rfemur -57.4049 -23.3552 11.2408
rtibia 67.0393 -0 0
rfoot 0.10009 4.18114 0.506965
rtoes 8.22141 -0 0
lowerback 17.0353 -0.184509 -3.63273
upperback -0.987835 -0.631716 2.97202
thorax -10.6313 0.0248256 5.49272
lowerneck 5.13477 -14.6065 -15.147
upperneck 0.020795 -20.4721 15.3853
head 2.34472 -10.3882 6.3308
lclavicle -2.8128e-14 1.47101e-14 0
lhumerus -49.8514 -47.8053 114.785
lradius 105.995 -0 0
lwrist 80.4061 0 0
lhand 8.22023 40.702 -0.0463028
lfingers 7.12502 -0 0
lthumb 33.4337 67.5826 -0.0528781
rclavicle -2.8128e-14 1.47101e-14 0
rhumerus 13.2558 -7.94882 -58.8217
rradius 77.793 -0 0
rwrist 25.205 0 0
rhand -36.3158 -47.0375 0.308657
rfingers 7.12502 -0 0
rthumb -9.41187 -76.709 0.292804
2552
root 3.92435 13.7526 -24.4677 -9.06833 77.6051 -12.5559
lfemur -39.1052 12.0568 -13.4162
ltibia 89.306 -0 0
lfoot -27.7648 26.7611 -0.0506854
ltoes -38.4436 0 0
rfemur -57.4954 -23.1003 11.6041
rtibia 67.8982 -0 0
rfoot -0.207354 3.40251 0.575192
rtoes 8.23802 -0 0
lowerback 17.1049 -0.133668 -3.68665
upperback -0.969117 -0.580993 2.9415
thorax -10.6578 0.0509477 5.47719
lowerneck 5.1327 -14.6088 -15.15
upperneck 0.00722919 -20.4813 15.5114
head 2.35734 -10.3942 6.36698
lclavicle -2.8128e-14 1.47101e-14 0
lhumerus -49.0966 -48.3709 114.692
lradius 105.663 -0 0
lwrist 80.1041 0 0
lhand 8.05154 40.8281 -0.0525409
lfingers 7.12502 -0 0
lthumb 33.2729 67.7398 -0.0599563
rclavicle -2.8128e-14 1.47101e-14 0
rhumerus 14.3351 -6.4877 -58.3236
rradius 78.1966 -0 0
rwrist 24.6551 0 0
rhand -35.8567 -46.6647 0.348923
rfingers 7.12502 -0 0
rthumb -8.96862 -76.3431 0.331009
2553
root 3.89226 13.7599 -24.6043 -7.28222 75.4696 -10.9672
lfemur -39.3066 12.1392 -13.7044
ltibia 89.1603 -0 0
lfoot -27.8052 26.9269 -0.0561217
ltoes -38.3118 0 0
rfemur -57.5862 -22.842 11.9816
rtibia 68.7954 -0 0
rfoot -0.532399 2.59315 0.641536
rtoes 8.2563 -0 0
lowerback 17.1767 -0.0808689 -3.74562
upperback -0.950262 -0.529034 2.91002
thorax -10.6855 0.0779279 5.46322
lowerneck 5.13013 -14.6113 -15.1535
upperneck -0.00498098 -20.4914 15.6414
head 2.37109 -10.4006 6.40422
lclavicle -2.8128e-14 1.47101e-14 0
lhumerus -48.3028 -48.9546 114.583
lradius 105.318 -0 0
lwrist 79.7923 0 0
lhand 7.87632 40.9614 -0.0586113
lfingers 7.12502 -0 0
lthumb 33.106 67.9056 -0.0668311
rclavicle -2.8128e-14 1.47101e-14 0
rhumerus 15.4672 -4.97843 -57.7826
rradius 78.6228 -0 0
rwrist 24.0947 0 0
rhand -35.3793 -46.2768 0.387727
rfingers 7.12502 -0 0
rthumb -8.50766 -75.9624 0.367828
2554
root 3.8608 13.767 -24.7404 -5.88417 73.2505 -9.77298
lfemur -39.5136 12.2338 -14.0033
ltibia 89.0056 -0 0
lfoot -27.8531 27.0955 -0.0613409
ltoes -38.1745 0 0
rfemur -57.6769 -22.5812 12.3722
rtibia 69.7274 -0 0
rfoot -0.87386 1.75581 0.705173
rtoes 8.27617 -0 0
lowerback 17.2506 -0.0262745 -3.80937
upperback -0.931324 -0.475995 2.87766
thorax -10.7145 0.105679 5.45078
lowerneck 5.1271 -14.6143 -15.1576
upperneck -0.0158466 -20.5023 15.7751
head 2.38591 -10.4074 6.44238
lclavicle -2.8128e-14 1.47101e-14 0
lhumerus -47.4709 -49.5545 114.457
lradius 104.961 -0 0
lwrist 79.4718 0 0
lhand 7.69517 41.1016 -0.0644397
lfingers 7.12502 -0 0
lthumb 32.9334 68.0792 -0.0734179
rclavicle -2.8128e-14 1.47101e-14 0
rhumerus 16.6508 -3.42788 -57.1971
rradius 79.07 -0 0
rwrist 23.5255 0 0
rhand -34.8851 -45.8751 0.424577
rfingers 7.12502 -0 0
rthumb -8.03055 -75.5681 0.402796
2555
root 3.82985 13.7739 -24.8761 -4.75662 70.9576 -8.85546
lfemur -39.7257 12.34 -14.3121
ltibia 88.8426 -0 0
lfoot -27.9083 27.2663 -0.0662967
ltoes -38.0321 0 0
rfemur -57.7671 -22.3184 12.7744
rtibia 70.6913 -0 0
rfoot -1.23052 0.8932 0.765321
rtoes 8.29754 -0 0
lowerback 17.3264 0.0299499 -3.87761
upperback -0.912353 -0.422034 2.84453
thorax -10.7445 0.134115 5.43987
lowerneck 5.12361 -14.6175 -15.1623
upperneck -0.0253784 -20.5139 15.912
head 2.40174 -10.4146 6.48136
lclavicle -2.8128e-14 1.47101e-14 0
lhumerus -46.6021 -50.1682 114.313
lradius 104.594 -0 0
lwrist 79.1436 0 0
lhand 7.50868 41.2481 -0.0699556
lfingers 7.12502 -0 0
lthumb 32.7557 68.2601 -0.0796369
rclavicle -2.8128e-14 1.47101e-14 0
rhumerus 17.8846 -1.84298 -56.5655
rradius 79.5364 -0 0
rwrist 22.949 0 0
rhand -34.3758 -45.4609 0.459014
rfingers 7.12502 -0 0
rthumb -7.53887 -75.1615 0.435478
2556
root 3.79926 13.7807 -25.0114 -3.82418 68.6 -8.13884
lfemur -39.9424 12.4571 -14.6298
ltibia 88.6718 -0 0
lfoot -27.9704 27.439 -0.0709444
ltoes -37.8851 0 0
rfemur -57.8564 -22.0544 13.1869
rtibia 71.6839 -0 0
rfoot -1.60115 0.00807591 0.821248
rtoes 8.32033 -0 0
lowerback 17.4037 0.0876386 -3.95004
upperback -0.8934 -0.367308 2.81073
thorax -10.7756 0.163148 5.43049
lowerneck 5.11969 -14.621 -15.1674
upperneck -0.033587 -20.5262 16.0516
head 2.41851 -10.4222 6.52104
lclavicle -2.8128e-14 1.47101e-14 0
lhumerus -45.6976 -50.7937 114.149
lradius 104.218 -0 0
lwrist 78.8087 0 0
lhand 7.31744 41.4004 -0.0750931
lfingers 7.12502 -0 0
lthumb 32.5735 68.4477 -0.0854134
rclavicle -2.8128e-14 1.47101e-14 0
rhumerus 19.1676 -0.230727 -55.8863
rradius 80.0207 -0 0
rwrist 22.3669 0 0
rhand -33.853 -45.0355 0.490615
rfingers 7.12502 -0 0
rthumb -7.03418 -74.7439 0.465471
2557
root 3.76889 13.7875 -25.1464 -3.0365 66.1862 -7.5724
lfemur -40.1632 12.5846 -14.9556
ltibia 88.4938 -0 0
lfoot -28.0392 27.613 -0.0752416
ltoes -37.734 0 0
rfemur -57.9445 -21.7898 13.6084
rtibia 72.7019 -0 0
rfoot -1.98449 -0.896806 0.872278
rtoes 8.34444 -0 0
lowerback 17.4823 0.146625 -4.02641
upperback -0.874517 -0.311973 2.77636
thorax -10.8075 0.192691 5.42261
lowerneck 5.11535 -14.6249 -15.1731
upperneck -0.0404826 -20.5391 16.1936
head 2.43616 -10.4302 6.5613
lclavicle -2.8128e-14 1.47101e-14 0
lhumerus -44.7584 -51.4287 113.964
lradius 103.834 -0 0
lwrist 78.468 0 0
lhand 7.12205 41.558 -0.0797915
lfingers 7.12502 -0 0
lthumb 32.3873 68.6413 -0.0906788
rclavicle -2.8128e-14 1.47101e-14 0
rhumerus 20.4987 1.40187 -55.1583
rradius 80.521 -0 0
rwrist 21.7809 0 0
rhand -33.3184 -44.6003 0.518999
rfingers 7.12502 -0 0
rthumb -6.51807 -74.3167 0.492415
2558
root 3.73862 13.7944 -25.2812 -2.35878 63.7243 -7.12104
lfemur -40.3875 12.7217 -15.2886
ltibia 88.3092 -0 0
lfoot -28.1143 27.7879 -0.0791485
ltoes -37.5792 0 0
rfemur -58.031 -21.5253 14.0374
rtibia 73.7422 -0 0
rfoot -2.37925 -1.81868 0.917797
rtoes 8.36979 -0 0
lowerback 17.5621 0.206741 -4.10641
upperback -0.855754 -0.256186 2.74153
thorax -10.8403 0.222659 5.41624
lowerneck 5.11062 -14.629 -15.1792
upperneck -0.046075 -20.5527 16.3375
head 2.45462 -10.4384 6.60202
lclavicle -2.8128e-14 1.47101e-14 0
lhumerus -43.7857 -52.0712 113.756
lradius 103.443 -0 0
lwrist 78.1226 0 0
lhand 6.92309 41.7203 -0.0839954
lfingers 7.12502 -0 0
lthumb 32.1977 68.8403 -0.095371
rclavicle -2.8128e-14 1.47101e-14 0
rhumerus 21.877 3.04779 -54.3806
rradius 81.0357 -0 0
rwrist 21.1924 0 0
rhand -32.7736 -44.1566 0.543825
rfingers 7.12502 -0 0
rthumb -5.99213 -73.8811 0.515986
2559
root 3.7083 13.8014 -25.4157 -1.76627 61.2224 -6.75967
lfemur -40.6149 12.8679 -15.6279
ltibia 88.1186 -0 0
lfoot -28.1955 27.9632 -0.0826278
ltoes -37.4213 0 0
rfemur -58.1158 -21.2615 14.4729
rtibia 74.8016 -0 0
rfoot -2.78412 -2.75476 0.957257
rtoes 8.39628 -0 0
lowerback 17.6427 0.267817 -4.18979
upperback -0.837162 -0.200106 2.70634
thorax -10.8737 0.252964 5.41137
lowerneck 5.10552 -14.6334 -15.1857
upperneck -0.0503736 -20.5668 16.4829
head 2.47384 -10.4469 6.64309
lclavicle -2.8128e-14 1.47101e-14 0
lhumerus -42.7807 -52.7189 113.526
lradius 103.046 -0 0
lwrist 77.7734 0 0
lhand 6.72117 41.8868 -0.0876553
lfingers 7.12502 -0 0
lthumb 32.0052 69.0441 -0.099435
rclavicle -2.8128e-14 1.47101e-14 0
rhumerus 23.3015 4.70001 -53.5525
rradius 81.5634 -0 0
rwrist 20.6032 0 0
rhand -32.2202 -43.7058 0.5648
rfingers 7.12502 -0 0
rthumb -5.45795 -73.4385 0.535906
